<svg width="55" height="20" viewBox="0 0 55 20" fill="none" xmlns="http://www.w3.org/2000/svg">
<path fill-rule="evenodd" clip-rule="evenodd" d="M18.9096 4.19735C19.2201 4.50791 19.4439 4.89442 19.5586 5.31837C20.2192 7.97736 20.0666 12.1768 19.5715 14.9384C19.4567 15.3624 19.233 15.7489 18.9224 16.0594C18.6118 16.37 18.2253 16.5938 17.8014 16.7085C16.2493 17.1318 10.0027 17.1318 10.0027 17.1318C10.0027 17.1318 3.75609 17.1318 2.20405 16.7085C1.7801 16.5938 1.39359 16.37 1.08303 16.0594C0.772467 15.7489 0.548682 15.3624 0.433962 14.9384C-0.230463 12.291 -0.0483238 8.08895 0.421135 5.3312C0.535856 4.90724 0.75964 4.52074 1.0702 4.21018C1.38077 3.89961 1.76727 3.67583 2.19122 3.56111C3.74326 3.13783 9.98988 3.125 9.98988 3.125C9.98988 3.125 16.2365 3.125 17.7885 3.54828C18.2125 3.663 18.599 3.88679 18.9096 4.19735ZM13.1837 10.1284L8.00171 13.1299V7.12695L13.1837 10.1284Z" fill="white"/>
<path fill-rule="evenodd" clip-rule="evenodd" d="M55.0005 10C55.0005 15.5228 50.5233 20 45.0005 20C39.4776 20 35.0005 15.5228 35.0005 10C35.0005 4.47715 39.4776 0 45.0005 0C50.5233 0 55.0005 4.47715 55.0005 10ZM45.3588 7.3824C44.3862 7.78696 42.4423 8.6243 39.5271 9.8944C39.0537 10.0827 38.8057 10.2668 38.7831 10.4469C38.745 10.7512 39.1261 10.8711 39.645 11.0342C39.7156 11.0564 39.7888 11.0794 39.8638 11.1038C40.3743 11.2698 41.0612 11.4639 41.4182 11.4717C41.7421 11.4787 42.1036 11.3451 42.5027 11.0711C45.2264 9.23247 46.6325 8.30314 46.7207 8.28311C46.783 8.26897 46.8693 8.2512 46.9278 8.30317C46.9863 8.35514 46.9805 8.45356 46.9743 8.47997C46.9366 8.64092 45.4406 10.0317 44.6664 10.7515C44.4251 10.9758 44.2539 11.135 44.2189 11.1713C44.1405 11.2528 44.0606 11.3298 43.9838 11.4038C43.5094 11.8611 43.1537 12.204 44.0035 12.764C44.4118 13.0331 44.7386 13.2556 45.0646 13.4776C45.4206 13.72 45.7757 13.9619 46.2352 14.263C46.3522 14.3398 46.464 14.4195 46.5729 14.4971C46.9872 14.7925 47.3594 15.0578 47.8193 15.0155C48.0865 14.9909 48.3625 14.7396 48.5027 13.9903C48.834 12.2193 49.4852 8.38201 49.6357 6.80077C49.6488 6.66224 49.6323 6.48494 49.6189 6.40711C49.6056 6.32928 49.5778 6.21839 49.4766 6.1363C49.3568 6.03908 49.1718 6.01858 49.0891 6.01996C48.713 6.02666 48.1359 6.22731 45.3588 7.3824Z" fill="white"/>
</svg>
