<svg width="20" height="18" viewBox="0 0 20 18" fill="none" xmlns="http://www.w3.org/2000/svg">
<path d="M6.44379 11.7189H6.4447C6.44546 11.7189 6.44623 11.7188 6.44699 11.7188H17.0703C17.3318 11.7188 17.5618 11.5453 17.6337 11.2938L19.9774 3.09067C20.0279 2.91382 19.9925 2.72369 19.8819 2.5769C19.7711 2.43011 19.5979 2.34375 19.4141 2.34375H5.09247L4.67361 0.458832C4.61395 0.190735 4.37622 0 4.10156 0H0.585937C0.262299 0 0 0.262299 0 0.585938C0 0.909576 0.262299 1.17188 0.585937 1.17188H3.63159C3.70575 1.50589 5.63599 10.1921 5.74707 10.6918C5.12436 10.9625 4.6875 11.5834 4.6875 12.3047C4.6875 13.2739 5.47607 14.0625 6.44531 14.0625H17.0703C17.3939 14.0625 17.6562 13.8002 17.6562 13.4766C17.6562 13.1529 17.3939 12.8906 17.0703 12.8906H6.44531C6.12228 12.8906 5.85937 12.6277 5.85937 12.3047C5.85937 11.9821 6.12137 11.7197 6.44379 11.7189ZM18.6372 3.51562L16.6283 10.5469H6.91528L5.35278 3.51562H18.6372Z" fill="white"/>
<path d="M5.85938 15.8203C5.85938 16.7896 6.64795 17.5781 7.61719 17.5781C8.58643 17.5781 9.375 16.7896 9.375 15.8203C9.375 14.8511 8.58643 14.0625 7.61719 14.0625C6.64795 14.0625 5.85938 14.8511 5.85938 15.8203ZM7.61719 15.2344C7.94022 15.2344 8.20312 15.4973 8.20312 15.8203C8.20312 16.1433 7.94022 16.4062 7.61719 16.4062C7.29416 16.4062 7.03125 16.1433 7.03125 15.8203C7.03125 15.4973 7.29416 15.2344 7.61719 15.2344Z" fill="white"/>
<path d="M16 16.0469C16 17.0161 16.7886 17.8047 17.7578 17.8047C18.7271 17.8047 19.5156 17.0161 19.5156 16.0469C19.5156 15.0776 18.7271 14.2891 17.7578 14.2891C16.7886 14.2891 16 15.0776 16 16.0469ZM17.7578 15.4609C18.0808 15.4609 18.3438 15.7238 18.3438 16.0469C18.3438 16.3699 18.0808 16.6328 17.7578 16.6328C17.4348 16.6328 17.1719 16.3699 17.1719 16.0469C17.1719 15.7238 17.4348 15.4609 17.7578 15.4609Z" fill="white"/>
</svg>
